<svg xmlns="http://www.w3.org/2000/svg" version="1.1" xmlns:xlink="http://www.w3.org/1999/xlink" width="200" height="200"><svg xmlns="http://www.w3.org/2000/svg" version="1.1" xmlns:xlink="http://www.w3.org/1999/xlink" viewBox="0 0 200 200"><rect width="200" height="200" fill="url('#gradient')"></rect><defs><linearGradient id="SvgjsLinearGradient1001" gradientTransform="rotate(45 0.5 0.5)"><stop offset="0%" stop-color="#deae42"></stop><stop offset="100%" stop-color="#b84833"></stop></linearGradient></defs><g><g fill="#1c2e40" transform="matrix(1.4214544613249016,0,0,1.4214544613249016,8.472898904301118,107.21911322944578)" stroke="#37af61" stroke-width="0.2"><path d="M8.87 0L6.36-5.02L4.50-5.02L4.50 0L1.07 0L1.07-14.22L6.67-14.22Q9.20-14.22 10.63-13.10Q12.05-11.97 12.05-9.92L12.05-9.92Q12.05-8.44 11.45-7.46Q10.85-6.48 9.57-5.88L9.57-5.88L12.54-0.15L12.54 0L8.87 0ZM4.50-11.57L4.50-7.67L6.67-7.67Q7.65-7.67 8.14-8.18Q8.63-8.69 8.63-9.61Q8.63-10.53 8.13-11.05Q7.64-11.57 6.67-11.57L6.67-11.57L4.50-11.57ZM19.08 0.20L19.08 0.20Q16.65 0.20 15.15-1.25Q13.64-2.71 13.64-5.03L13.64-5.03L13.64-5.30Q13.64-6.92 14.24-8.16Q14.84-9.40 16.00-10.08Q17.15-10.76 18.73-10.76L18.73-10.76Q20.96-10.76 22.25-9.38Q23.54-8.00 23.54-5.53L23.54-5.53L23.54-4.25L16.99-4.25Q17.17-3.36 17.76-2.85Q18.36-2.34 19.31-2.34L19.31-2.34Q20.87-2.34 21.75-3.44L21.75-3.44L23.25-1.66Q22.64-0.81 21.51-0.31Q20.38 0.20 19.08 0.20ZM18.71-8.22L18.71-8.22Q17.27-8.22 16.99-6.31L16.99-6.31L20.31-6.31L20.31-6.56Q20.33-7.35 19.91-7.79Q19.49-8.22 18.71-8.22ZM34.10 0L30.81 0Q30.63-0.32 30.50-0.95L30.50-0.95Q29.59 0.20 27.96 0.20L27.96 0.20Q26.46 0.20 25.42-0.71Q24.38-1.61 24.38-2.98L24.38-2.98Q24.38-4.70 25.64-5.58Q26.91-6.46 29.34-6.46L29.34-6.46L30.35-6.46L30.35-7.01Q30.35-8.47 29.09-8.47L29.09-8.47Q27.92-8.47 27.92-7.31L27.92-7.31L24.63-7.31Q24.63-8.85 25.93-9.80Q27.24-10.76 29.26-10.76Q31.28-10.76 32.45-9.78Q33.62-8.79 33.65-7.07L33.65-7.07L33.65-2.39Q33.67-0.94 34.10-0.17L34.10-0.17L34.10 0ZM28.75-2.15L28.75-2.15Q29.37-2.15 29.77-2.41Q30.18-2.68 30.35-3.01L30.35-3.01L30.35-4.70L29.39-4.70Q27.68-4.70 27.68-3.15L27.68-3.15Q27.68-2.71 27.98-2.43Q28.28-2.15 28.75-2.15ZM39.94-2.34L39.94-2.34Q40.63-2.34 41.02-2.72Q41.40-3.10 41.39-3.77L41.39-3.77L44.47-3.77Q44.47-2.03 43.23-0.92Q41.98 0.20 40.02 0.20L40.02 0.20Q37.71 0.20 36.39-1.25Q35.06-2.70 35.06-5.25L35.06-5.25L35.06-5.39Q35.06-6.99 35.65-8.22Q36.24-9.44 37.35-10.10Q38.47-10.76 39.99-10.76L39.99-10.76Q42.05-10.76 43.26-9.62Q44.47-8.48 44.47-6.52L44.47-6.52L41.39-6.52Q41.39-7.34 40.99-7.78Q40.59-8.22 39.91-8.22L39.91-8.22Q38.63-8.22 38.42-6.59L38.42-6.59Q38.35-6.07 38.35-5.17L38.35-5.17Q38.35-3.57 38.73-2.96Q39.11-2.34 39.94-2.34ZM46.41-13.19L49.70-13.19L49.70-10.57L51.44-10.57L51.44-8.28L49.70-8.28L49.70-3.45Q49.70-2.85 49.91-2.62Q50.13-2.38 50.76-2.38L50.76-2.38Q51.25-2.38 51.58-2.44L51.58-2.44L51.58-0.09Q50.69 0.20 49.73 0.20L49.73 0.20Q48.03 0.20 47.22-0.61Q46.41-1.41 46.41-3.04L46.41-3.04L46.41-8.28L45.06-8.28L45.06-10.57L46.41-10.57L46.41-13.19ZM66.68-8.57L66.68-6.03L61.29-6.03L61.29-2.64L67.66-2.64L67.66 0L57.86 0L57.86-14.22L67.68-14.22L67.68-11.57L61.29-11.57L61.29-8.57L66.68-8.57ZM71.70-10.57L73.18-7.66L74.72-10.57L78.13-10.57L75.35-5.42L78.27 0L74.83 0L73.17-3.13L71.54 0L68.09 0L71.02-5.42L68.24-10.57L71.70-10.57ZM89.00-5.36L89.00-5.21Q89.00-2.74 87.90-1.27Q86.79 0.20 84.90 0.20L84.90 0.20Q83.45 0.20 82.51-0.87L82.51-0.87L82.51 4.06L79.22 4.06L79.22-10.57L82.29-10.57L82.39-9.59Q83.34-10.76 84.88-10.76L84.88-10.76Q86.84-10.76 87.92-9.32Q89.00-7.88 89.00-5.36L89.00-5.36ZM85.71-5.06L85.71-5.41Q85.71-8.22 84.07-8.22L84.07-8.22Q82.90-8.22 82.51-7.38L82.51-7.38L82.51-3.22Q82.94-2.34 84.09-2.34L84.09-2.34Q85.66-2.34 85.71-5.06L85.71-5.06ZM96.90-10.64L96.85-7.59L95.76-7.67Q94.21-7.67 93.77-6.69L93.77-6.69L93.77 0L90.48 0L90.48-10.57L93.56-10.57L93.67-9.21Q94.50-10.76 95.99-10.76L95.99-10.76Q96.51-10.76 96.90-10.64L96.90-10.64ZM102.96 0.20L102.96 0.20Q100.53 0.20 99.02-1.25Q97.52-2.71 97.52-5.03L97.52-5.03L97.52-5.30Q97.52-6.92 98.12-8.16Q98.72-9.40 99.87-10.08Q101.03-10.76 102.61-10.76L102.61-10.76Q104.83-10.76 106.12-9.38Q107.41-8.00 107.41-5.53L107.41-5.53L107.41-4.25L100.87-4.25Q101.04-3.36 101.64-2.85Q102.24-2.34 103.18-2.34L103.18-2.34Q104.75-2.34 105.63-3.44L105.63-3.44L107.13-1.66Q106.51-0.81 105.39-0.31Q104.26 0.20 102.96 0.20ZM102.59-8.22L102.59-8.22Q101.14-8.22 100.87-6.31L100.87-6.31L104.19-6.31L104.19-6.56Q104.21-7.35 103.79-7.79Q103.37-8.22 102.59-8.22ZM114.27-2.97L114.27-2.97Q114.27-3.39 113.83-3.64Q113.39-3.90 112.16-4.17Q110.93-4.44 110.13-4.89Q109.33-5.33 108.91-5.97Q108.49-6.60 108.49-7.42L108.49-7.42Q108.49-8.88 109.69-9.82Q110.89-10.76 112.83-10.76L112.83-10.76Q114.92-10.76 116.19-9.81Q117.46-8.87 117.46-7.32L117.46-7.32L114.16-7.32Q114.16-8.59 112.82-8.59L112.82-8.59Q112.30-8.59 111.95-8.31Q111.60-8.02 111.60-7.59L111.60-7.59Q111.60-7.15 112.03-6.88Q112.46-6.60 113.40-6.43Q114.35-6.25 115.06-6.01L115.06-6.01Q117.44-5.19 117.44-3.07L117.44-3.07Q117.44-1.62 116.16-0.71Q114.87 0.20 112.83 0.20L112.83 0.20Q111.47 0.20 110.41-0.29Q109.35-0.78 108.75-1.62Q108.15-2.46 108.15-3.39L108.15-3.39L111.23-3.39Q111.25-2.66 111.72-2.32Q112.19-1.98 112.92-1.98L112.92-1.98Q113.59-1.98 113.93-2.26Q114.27-2.53 114.27-2.97ZM124.51-2.97L124.51-2.97Q124.51-3.39 124.07-3.64Q123.63-3.90 122.40-4.17Q121.17-4.44 120.37-4.89Q119.57-5.33 119.15-5.97Q118.73-6.60 118.73-7.42L118.73-7.42Q118.73-8.88 119.93-9.82Q121.13-10.76 123.08-10.76L123.08-10.76Q125.17-10.76 126.44-9.81Q127.71-8.87 127.71-7.32L127.71-7.32L124.40-7.32Q124.40-8.59 123.07-8.59L123.07-8.59Q122.55-8.59 122.20-8.31Q121.85-8.02 121.85-7.59L121.85-7.59Q121.85-7.15 122.28-6.88Q122.71-6.60 123.65-6.43Q124.59-6.25 125.30-6.01L125.30-6.01Q127.69-5.19 127.69-3.07L127.69-3.07Q127.69-1.62 126.40-0.71Q125.12 0.20 123.08 0.20L123.08 0.20Q121.72 0.20 120.65-0.29Q119.59-0.78 118.99-1.62Q118.40-2.46 118.40-3.39L118.40-3.39L121.47-3.39Q121.49-2.66 121.96-2.32Q122.43-1.98 123.16-1.98L123.16-1.98Q123.84-1.98 124.17-2.26Q124.51-2.53 124.51-2.97Z"></path></g></g></svg><style>@media (prefers-color-scheme: light) { :root { filter: none; } }
@media (prefers-color-scheme: dark) { :root { filter: none; } }
</style></svg>